<svg width="59" height="59" viewBox="0 0 59 59" fill="none" xmlns="http://www.w3.org/2000/svg">
<g id="cashless-payment 1" clip-path="url(#clip0_17_38)">
<g id="Group">
<g id="Group_2">
<path id="Vector" d="M37.3096 51.0029C32.9517 51.1838 32.955 57.392 37.3096 57.5713H46.2979C50.6558 57.3904 50.6525 51.1822 46.2979 51.0029H37.3096ZM47.8536 54.2871C47.8536 55.1449 47.1557 55.8428 46.2979 55.8428H37.3096C35.2453 55.7572 35.2469 52.8163 37.3096 52.7314H46.2979C47.1557 52.7314 47.8536 53.4293 47.8536 54.2871Z" fill="black"/>
<path id="Vector_2" d="M74.688 18.1611H70.2886C69.1442 18.2008 69.1451 19.8505 70.2886 19.8896H74.688C75.4588 19.8896 76.0859 20.5166 76.0859 21.2876V44.4195C76.0859 45.1903 75.4589 45.8174 74.688 45.8174H34.9624C34.1916 45.8174 33.5645 45.1904 33.5645 44.4195V43.2622H42.8408C47.9633 43.0495 47.9594 35.7522 42.8408 35.5415H33.5645V21.2876C33.5645 20.5168 34.1914 19.8896 34.9624 19.8896H66.226C67.3704 19.85 67.3695 18.2003 66.226 18.1611H59.6074V14.4736C59.6074 11.4555 57.1519 9 54.1338 9H29.4736C26.4555 9 24 11.4555 24 14.4736V19.4332C24.0396 20.5776 25.6893 20.5767 25.7285 19.4332V14.4736C25.7285 12.4085 27.4085 10.7285 29.4736 10.7285H54.1338C56.1989 10.7285 57.8789 12.4085 57.8789 14.4736V18.1611H56.6113V14.4736C56.6113 13.1075 55.4999 11.9961 54.1338 11.9961H49.5129C48.8759 11.9961 48.3081 12.4005 48.0998 13.0034L47.5461 14.6142H36.0611L35.507 13.0022C35.2991 12.4005 34.7314 11.9962 34.0943 11.9962H29.4736C28.1075 11.9962 26.9961 13.1076 26.9961 14.4737V62.5265C26.9961 63.8926 28.1075 65.004 29.4736 65.004H54.1338C55.4999 65.004 56.6113 63.8926 56.6113 62.5265V59.8242C56.5717 58.6798 54.922 58.6808 54.8828 59.8242V62.5265C54.8828 62.9395 54.5468 63.2755 54.1338 63.2755H29.4736C29.0606 63.2755 28.7246 62.9395 28.7246 62.5265V14.4737C28.7246 14.0607 29.0606 13.7247 29.4736 13.7247H33.9277L34.4818 15.3366C34.6896 15.9385 35.2572 16.3427 35.8945 16.3427H47.7129C48.3501 16.3427 48.9178 15.9384 49.126 15.3355L49.6798 13.7246H54.1338C54.5468 13.7246 54.8828 14.0606 54.8828 14.4736V18.1611H34.9624C33.2385 18.1611 31.8359 19.5637 31.8359 21.2876V44.4195C31.8359 46.1434 33.2385 47.5459 34.9624 47.5459H54.8828V55.7936C54.9225 56.938 56.5721 56.937 56.6113 55.7936V47.5459H57.8789V62.5264C57.8789 64.5915 56.1989 66.2715 54.1338 66.2715H29.4736C27.4085 66.2715 25.7285 64.5915 25.7285 62.5264V23.5195C25.6889 22.3751 24.0392 22.3761 24 23.5195V62.5264C24 65.5445 26.4555 68 29.4736 68H54.1338C57.1519 68 59.6074 65.5445 59.6074 62.5264V47.5459H74.688C76.4119 47.5459 77.8145 46.1434 77.8145 44.4195V21.2876C77.8145 19.5637 76.4119 18.1611 74.688 18.1611ZM42.8408 37.27C45.6697 37.3874 45.6675 41.4173 42.8408 41.5337H33.5645V37.27H42.8408Z" fill="black"/>
<path id="Vector_3" d="M56.0261 42.7344C56.0658 43.8788 57.7155 43.8779 57.7547 42.7344V40.6989C58.1196 40.6971 58.515 40.6954 58.7461 40.6954C62.4372 40.544 62.4355 35.3557 58.7461 35.2051H56.8904C56.4251 35.1959 56.0155 35.6069 56.0261 36.072V42.7344ZM58.7461 36.9336C59.3171 36.9336 59.7996 37.3992 59.7996 37.9502C59.7996 38.5013 59.3171 38.9668 58.7461 38.9668C58.5165 38.9668 58.1258 38.9684 57.7628 38.9703C57.7582 38.1128 57.7598 37.8169 57.7572 36.9335H58.7461V36.9336Z" fill="black"/>
<path id="Vector_4" d="M38.5771 22.6553C37.7193 22.6553 37.0215 23.3531 37.0215 24.2109V28.8203C37.0215 29.6781 37.7193 30.376 38.5771 30.376H45.7217C46.5795 30.376 47.2773 29.6781 47.2773 28.8203V24.2109C47.2773 23.3531 46.5795 22.6553 45.7217 22.6553H38.5771ZM45.5488 28.6475H38.75V24.3838H45.5488V28.6475Z" fill="black"/>
<path id="Vector_5" d="M52.9704 25.6017V26.9845C53.01 28.1289 54.6597 28.128 54.6989 26.9845V25.6017C54.6594 24.4573 53.0096 24.4583 52.9704 25.6017Z" fill="black"/>
<path id="Vector_6" d="M59.1722 26.9845V25.6017C59.1325 24.4573 57.4828 24.4583 57.4437 25.6017V26.9845C57.4832 28.1289 59.133 28.1281 59.1722 26.9845Z" fill="black"/>
</g>
</g>
</g>
<defs>
<clipPath id="clip0_17_38">
<rect width="59" height="59" fill="white"/>
</clipPath>
</defs>
</svg>
