<svg width="30" height="30" viewBox="0 0 30 30" fill="none" xmlns="http://www.w3.org/2000/svg">
<g id="ic/back">
<path id="Vector" d="M18.4782 24.6469C18.5661 24.734 18.6358 24.8377 18.6834 24.952C18.731 25.0662 18.7555 25.1887 18.7555 25.3125C18.7555 25.4363 18.731 25.5588 18.6834 25.673C18.6358 25.7873 18.5661 25.891 18.4782 25.9781C18.391 26.066 18.2873 26.1357 18.1731 26.1833C18.0589 26.2309 17.9363 26.2554 17.8126 26.2554C17.6888 26.2554 17.5663 26.2309 17.452 26.1833C17.3378 26.1357 17.2341 26.066 17.1469 25.9781L6.83444 15.6656C6.74657 15.5785 6.67683 15.4748 6.62923 15.3605C6.58163 15.2463 6.55713 15.1238 6.55713 15C6.55713 14.8762 6.58163 14.7537 6.62923 14.6395C6.67683 14.5252 6.74657 14.4215 6.83444 14.3344L17.1469 4.02187C17.3235 3.84533 17.5629 3.74615 17.8126 3.74615C18.0622 3.74615 18.3017 3.84533 18.4782 4.02187C18.6547 4.1984 18.7539 4.43783 18.7539 4.68749C18.7539 4.93715 18.6547 5.17658 18.4782 5.35312L8.82194 15L18.4782 24.6469Z" fill="#DFDFDF"/>
</g>
</svg>
