<svg width="30" height="30" viewBox="0 0 30 30" fill="none" xmlns="http://www.w3.org/2000/svg">
<g id="ic/mute">
<path id="Vector" d="M27.1313 27.0375C26.9582 27.2141 26.7223 27.3152 26.475 27.3188C26.351 27.3182 26.2283 27.2931 26.114 27.2448C25.9998 27.1966 25.8962 27.1261 25.8094 27.0375L4.24691 5.475C4.09333 5.29566 4.01307 5.06496 4.02218 4.82902C4.0313 4.59307 4.12911 4.36925 4.29607 4.20229C4.46304 4.03532 4.68685 3.93751 4.9228 3.9284C5.15875 3.91928 5.38944 3.99954 5.56879 4.15313L27.1313 25.7156C27.3059 25.8913 27.4039 26.1289 27.4039 26.3766C27.4039 26.6242 27.3059 26.8619 27.1313 27.0375ZM13.125 17.8125H9.14066C8.95494 17.8101 8.7775 17.7352 8.64616 17.6039C8.51482 17.4725 8.43997 17.2951 8.43754 17.1094V12.0188L6.56254 10.1438V17.0906C6.56006 17.4308 6.62492 17.768 6.75338 18.083C6.88183 18.398 7.07134 18.6844 7.31099 18.9258C7.55064 19.1672 7.83569 19.3587 8.14971 19.4895C8.46373 19.6202 8.80052 19.6875 9.14066 19.6875H12.7688L18.9282 25.0688C19.2142 25.3245 19.5851 25.4649 19.9688 25.4625C20.1958 25.4601 20.4196 25.4089 20.625 25.3125C20.9194 25.1819 21.1654 24.9622 21.3282 24.6844L13.7438 18.0375C13.5715 17.8902 13.3517 17.8102 13.125 17.8125ZM19.6875 5.84063V16.1531L21.5625 18.0281V5.20313C21.5669 5.02749 21.5382 4.8526 21.4782 4.6875C21.3959 4.43888 21.253 4.21468 21.0622 4.03521C20.8715 3.85574 20.6391 3.72666 20.3859 3.65965C20.1327 3.59263 19.8669 3.5898 19.6123 3.65142C19.3578 3.71303 19.1227 3.83713 18.9282 4.0125L12.8719 9.29063L14.2032 10.6219L19.6875 5.84063Z" fill="#DFDFDF"/>
</g>
</svg>
