<svg width="30" height="30" viewBox="0 0 30 30" fill="none" xmlns="http://www.w3.org/2000/svg">
<g id="ic/playpause">
<path id="Vector" d="M29.0625 7.5V22.5C29.0625 22.7486 28.9637 22.9871 28.7879 23.1629C28.6121 23.3387 28.3736 23.4375 28.125 23.4375C27.8764 23.4375 27.6379 23.3387 27.4621 23.1629C27.2863 22.9871 27.1875 22.7486 27.1875 22.5V7.5C27.1875 7.25136 27.2863 7.0129 27.4621 6.83709C27.6379 6.66127 27.8764 6.5625 28.125 6.5625C28.3736 6.5625 28.6121 6.66127 28.7879 6.83709C28.9637 7.0129 29.0625 7.25136 29.0625 7.5ZM21.5625 6.5625C21.3139 6.5625 21.0754 6.66127 20.8996 6.83709C20.7238 7.0129 20.625 7.25136 20.625 7.5V22.5C20.625 22.7486 20.7238 22.9871 20.8996 23.1629C21.0754 23.3387 21.3139 23.4375 21.5625 23.4375C21.8111 23.4375 22.0496 23.3387 22.2254 23.1629C22.4012 22.9871 22.5 22.7486 22.5 22.5V7.5C22.5 7.25136 22.4012 7.0129 22.2254 6.83709C22.0496 6.66127 21.8111 6.5625 21.5625 6.5625ZM15.8625 15C15.8638 15.2989 15.7843 15.5925 15.6325 15.8499C15.4807 16.1073 15.2621 16.319 15 16.4625L3.39375 22.7437C3.14719 22.8807 2.86951 22.9517 2.5875 22.95C2.28458 22.9477 1.98742 22.867 1.725 22.7156C1.48665 22.5726 1.28904 22.3708 1.15114 22.1295C1.01324 21.8882 0.939676 21.6154 0.9375 21.3375V8.6625C0.939676 8.38456 1.01324 8.11185 1.15114 7.87052C1.28904 7.62919 1.48665 7.42736 1.725 7.28437C1.97988 7.14149 2.26718 7.06645 2.55938 7.06645C2.85157 7.06645 3.13887 7.14149 3.39375 7.28437L15 13.5375C15.2621 13.681 15.4807 13.8927 15.6325 14.1501C15.7843 14.4075 15.8638 14.7011 15.8625 15ZM13.7531 15L2.8125 9.075V20.925L13.7531 15Z" fill="#DFDFDF"/>
</g>
</svg>
