<svg width="30" height="30" viewBox="0 0 30 30" fill="none" xmlns="http://www.w3.org/2000/svg">
<g id="ic/plus">
<path id="Vector" d="M25.3125 15C25.3125 15.2486 25.2137 15.4871 25.0379 15.6629C24.8621 15.8387 24.6236 15.9375 24.375 15.9375H15.9375V24.375C15.9375 24.6236 15.8387 24.8621 15.6629 25.0379C15.4871 25.2137 15.2486 25.3125 15 25.3125C14.7514 25.3125 14.5129 25.2137 14.3371 25.0379C14.1613 24.8621 14.0625 24.6236 14.0625 24.375V15.9375H5.625C5.37636 15.9375 5.1379 15.8387 4.96209 15.6629C4.78627 15.4871 4.6875 15.2486 4.6875 15C4.6875 14.7514 4.78627 14.5129 4.96209 14.3371C5.1379 14.1613 5.37636 14.0625 5.625 14.0625H14.0625V5.625C14.0625 5.37636 14.1613 5.1379 14.3371 4.96209C14.5129 4.78627 14.7514 4.6875 15 4.6875C15.2486 4.6875 15.4871 4.78627 15.6629 4.96209C15.8387 5.1379 15.9375 5.37636 15.9375 5.625V14.0625H24.375C24.6236 14.0625 24.8621 14.1613 25.0379 14.3371C25.2137 14.5129 25.3125 14.7514 25.3125 15Z" fill="#DFDFDF"/>
</g>
</svg>
