<svg width="30" height="30" viewBox="0 0 30 30" fill="none" xmlns="http://www.w3.org/2000/svg">
<g id="ic/screen">
<path id="Vector" d="M24.8438 5.625H5.15625C4.53465 5.625 3.93851 5.87193 3.49897 6.31147C3.05943 6.75101 2.8125 7.34715 2.8125 7.96875V20.1562C2.8125 20.7779 3.05943 21.374 3.49897 21.8135C3.93851 22.2531 4.53465 22.5 5.15625 22.5H24.8438C25.4654 22.5 26.0615 22.2531 26.501 21.8135C26.9406 21.374 27.1875 20.7779 27.1875 20.1562V7.96875C27.1875 7.34715 26.9406 6.75101 26.501 6.31147C26.0615 5.87193 25.4654 5.625 24.8438 5.625ZM25.3125 20.1562C25.3101 20.2798 25.2599 20.3977 25.1726 20.4851C25.0852 20.5724 24.9673 20.6226 24.8438 20.625H5.15625C5.03268 20.6226 4.91484 20.5724 4.82745 20.4851C4.74006 20.3977 4.6899 20.2798 4.6875 20.1562V7.96875C4.6899 7.84518 4.74006 7.72734 4.82745 7.63995C4.91484 7.55256 5.03268 7.5024 5.15625 7.5H24.8438C24.9673 7.5024 25.0852 7.55256 25.1726 7.63995C25.2599 7.72734 25.3101 7.84518 25.3125 7.96875V20.1562ZM19.6875 25.3125C19.6875 25.5611 19.5887 25.7996 19.4129 25.9754C19.2371 26.1512 18.9986 26.25 18.75 26.25H11.25C11.0014 26.25 10.7629 26.1512 10.5871 25.9754C10.4113 25.7996 10.3125 25.5611 10.3125 25.3125C10.3125 25.0639 10.4113 24.8254 10.5871 24.6496C10.7629 24.4738 11.0014 24.375 11.25 24.375H18.75C18.9986 24.375 19.2371 24.4738 19.4129 24.6496C19.5887 24.8254 19.6875 25.0639 19.6875 25.3125Z" fill="#DFDFDF"/>
</g>
</svg>
